{"title":"One By Two (2014) -  Ishq Ki Khushfehmiyan - Video Song - HD 720","uid":9445707,"size":29200017,"categoryP":"video","categoryS":"music_videos","magnet":"?xt=urn:btih:6fcd83664b0ea00d5980b48df4a4ef9c27ed6f4d&amp;dn=One+By+Two+%282014%29+-++Ishq+Ki+Khushfehmiyan+-+Video+Song+-+HD+720&amp;tr=udp%3A%2F%2Ftracker.openbittorrent.com%3A80&amp;tr=udp%3A%2F%2Fopen.demonii.com%3A1337&amp;tr=udp%3A%2F%2Ftracker.coppersurfer.tk%3A6969&amp;tr=udp%3A%2F%2Fexodus.desync.com%3A6969","seeders":1,"leechers":0,"uploader":"ashish.p","files":1,"time":1389091856,"description":"General\n\nComplete name : One By Two (2014) - Ishq Ki Khushfehmiyan - Video Song - HD 720p -AshishRocks- { DAKU RG }\nFormat :\tMPEG-4\nFormat profile : Base Media / Version 2\nCodec ID : mp42\nFile size :\t27.8 MiB\nDuration :\t1mn 36s\nOverall bit rate mode : Variable\nOverall bit rate : 2 423 Kbps\nEncoded date : UTC 2014-01-05 08:27:15\nTagged date :\tUTC 2014-01-05 08:27:15\n\nVideo\n\nID : 1\nFormat : AVC\nFormat/Info : Advanced Video Codec\nFormat profile : &lt;a class=&quot;__cf_email__&quot; href=&quot;/cdn-cgi/l/email-protection&quot; data-cfemail=&quot;236b4a444b636f100d12&quot;&gt;[email&amp;#160;protected]&lt;/a&gt;&lt;script cf-hash='f9e31' type=&quot;text/javascript&quot;&gt;\n/* &lt;![CDATA[ */!function(){try{var t=&quot;currentScript&quot;in document?document.currentScript:function(){for(var t=document.getElementsByTagName(&quot;script&quot;),e=t.length;e--;)if(t[e].getAttribute(&quot;cf-hash&quot;))return t[e]}();if(t&amp;&amp;t.previousSibling){var e,r,n,i,c=t.previousSibling,a=c.getAttribute(&quot;data-cfemail&quot;);if(a){for(e=&quot;&quot;,r=parseInt(a.substr(0,2),16),n=2;a.length-n;n+=2)i=parseInt(a.substr(n,2),16)^r,e+=String.fromCharCode(i);e=document.createTextNode(e),c.parentNode.replaceChild(e,c)}}}catch(u){}}();/* ]]&gt; */&lt;/script&gt;\nFormat settings, CABAC :\tYes\nFormat settings, ReFrames : 1 frame\nCodec ID : avc1\nCodec ID/Info : Advanced Video Coding\nDuration :\t 1mn 36s\nBit rate :  2 229 Kbps\nMaximum bit rate :\t4 744 Kbps\nWidth : 1 280 pixels\nHeight : 720 pixels\nDisplay aspect ratio : 16:9\nFrame rate mode : Constant\nFrame rate : 25.000 fps\nColor space : YUV\nChroma subsampling : 4:2:0\nBit depth : 8 bits\nScan type : Progressive\nBits/(Pixel*Frame) :\t0.097\nStream size : 25.6 MiB (92%)\nTagged date :\tUTC 2014-01-05 08:27:15\n\nAudio\n\nID :\t2\nFormat : AAC\nFormat/Info : Advanced Audio Codec\nFormat profile : LC\nCodec ID : 40\nDuration :\t1mn 36s\nBit rate mode :\tVariable\nBit rate : 192 Kbps\nMaximum bit rate : 202 Kbps\nChannel(s) : 2 channels\nChannel positions :\tFront: L R\nSampling rate : 44.1 KHz\nCompression mode : Lossy\nStream size : 2.21 MiB (8%)\nTitle : IsoMedia File Produced by Google, 5-11-2011\nEncoded date : UTC 2014-01-05 08:27:15\nTagged date :\tUTC 2014-01-05 08:27:15","torrent":{"xt":"urn:btih:6fcd83664b0ea00d5980b48df4a4ef9c27ed6f4d","amp;dn":"One+By+Two+%282014%29+-++Ishq+Ki+Khushfehmiyan+-+Video+Song+-+HD+720","amp;tr":["udp%3A%2F%2Ftracker.openbittorrent.com%3A80","udp%3A%2F%2Fopen.demonii.com%3A1337","udp%3A%2F%2Ftracker.coppersurfer.tk%3A6969","udp%3A%2F%2Fexodus.desync.com%3A6969"],"infoHash":"6fcd83664b0ea00d5980b48df4a4ef9c27ed6f4d","infoHashBuffer":{"type":"Buffer","data":[111,205,131,102,75,14,160,13,89,128,180,141,244,164,239,156,39,237,111,77]},"announce":[],"urlList":[]}}